# xmcd CD database file
#
# Track frame offsets:
#	150
#	16850
#	30035
#	45062
#	56167
#	70612
#	89872
#	108107
#	126025
#	144507
#	164810
#	171722
#
# Disc length: 2472 seconds
#
# Revision: 0
# Processed by: cddbd v1.5.1PL2 Copyright (c) Steve Scherf et al.
# Submitted via: CDex 1.51
#
DISCID=9b09a60c
DTITLE=Various Artist - SISTER ACT BEST
DYEAR=2004
DGENRE=Gospel
TTITLE0=デロリス&ザ・ロネルズ - THE LOUNGE MEDLEY
TTITLE1=フォンテラ・バス - RESCUE ME
TTITLE2=デロリス&ザ・シスターズ - HAIL HOLY QUEEN
TTITLE3=デロリス&ザ・シスターズ - MY GUY (MY GOD)
TTITLE4=デロリス&ザ・シスターズ - FINALE:I WILL FOLLOW HIM ["CHARIOT"]
TTITLE5=デロリス&ザ・シスターズ&ザ・ロネルズ - SHOUT
TTITLE6=Whoopia and the Ronelles - THE GREATEST MEDLEY EVER TOLD
TTITLE7=The St. Francis Choir featuring Ryan Toby - OH HAPPY DAY
TTITLE8=Aretha Franklin - A DEEPER LOVE
TTITLE9=Valeria Andrews and Ryan Toby - PAY ATTENTION
TTITLE10=The Chapman Colleage Choir - ODE TO JOY
TTITLE11=Whoopi and the Cast - ANI'T NO MOUNTAIN HIGH ENOUGH
EXTD=YEAR: 2004
EXTT0=
EXTT1=
EXTT2=
EXTT3=
EXTT4=
EXTT5=
EXTT6=
EXTT7=
EXTT8=
EXTT9=
EXTT10=
EXTT11=
PLAYORDER=
